<svg xmlns="http://www.w3.org/2000/svg" width="1920" height="715" viewBox="0 0 1920 715" fill="none"><g opacity="0.05"><path d="M73.4479 104.797C675.352 84.5297 1278.03 87.4744 1879.71 113.611M9.02991 177.043C455.442 164.207 901.854 151.377 1348.27 138.541C1543.09 132.942 1742.27 127.914 1928.05 186.838M47.6586 250.25C367.529 237.309 687.405 224.368 1007.28 211.427C1315.24 198.968 1626.8 186.778 1928.8 248.362M24.6246 304.411C651.256 301.542 1277.89 298.667 1904.52 295.797M43.8213 377.528C663.469 370.867 1283.11 364.202 1902.76 357.541M47.308 436.592C663.494 439.948 1279.68 443.303 1895.86 446.658M31.6831 522.935C443.194 515.213 854.704 507.496 1266.21 499.773C1471.41 495.922 1680.08 492.497 1877.67 547.94M29.8196 595.582C658.229 590.253 1286.64 584.929 1915.04 579.601M57.838 650.88C677.491 652.763 1297.15 654.651 1916.8 656.534M22.4354 721.923C657.543 748.18 1293.81 746.207 1928.74 716.004M50.8246 798.876C661.16 799.673 1271.49 800.469 1881.83 801.265M70.1014 871.297C683.923 867.035 1297.74 862.774 1911.57 858.507M59.6115 932.38C682.175 928.163 1304.73 923.951 1927.3 919.735M21.1179 1009.51C506.439 1002.71 991.756 995.906 1477.08 989.105C1620.13 987.102 1763.17 985.094 1906.22 983.091M164.787 7.72189C168.264 64.3875 171.74 121.053 174.541 177.759C190.196 494.805 184.635 812.899 157.909 1129.2M243.843 14.4326C243.833 78.6703 243.823 142.908 243.818 207.146C243.803 324.413 243.783 441.686 243.768 558.953C243.743 736.442 243.643 914.907 214.337 1089.96M321.111 4.45668C312.77 274.633 304.449 545.587 328.465 814.827C337.883 920.416 352.24 1027.12 336.014 1131.88M390.458 17.6878C394.731 209.74 399.004 401.792 403.277 593.844C407.2 770.095 411.122 946.352 415.04 1122.6M512.401 10.6115C518.107 375.51 499.907 740.778 457.957 1103.31M586.557 -6.81133C583.762 230.683 580.962 468.183 578.166 705.677C577.781 738.29 577.4 770.902 577.014 803.514C575.917 896.482 574.825 989.456 573.728 1082.42M664.23 -1.51787C664.451 66.6311 664.666 134.785 664.887 202.934C665.232 311.092 665.578 419.25 665.924 527.408C666.104 583.337 666.28 639.266 667.477 695.186C669.17 774.643 672.912 854.04 676.654 933.432C679.65 996.998 682.646 1060.56 685.641 1124.13M733.047 12.4294C747.214 145.467 742.26 279.712 737.285 413.41C728.624 646.192 719.967 878.974 711.305 1111.75M827.122 17.823C825.799 170.808 824.481 323.792 823.159 476.777C822.382 566.53 821.611 656.288 820.834 746.042C819.702 877.377 818.565 1008.71 817.433 1140.05M906.418 12.2241C917.594 235.781 915.135 459.769 912.675 683.592C911.172 820.005 909.674 956.423 908.171 1092.84M986.796 12.4044C973.762 247.47 986.566 483.122 999.365 718.203C1006.57 850.559 1013.78 982.916 1020.99 1115.28M1062.97 13.8317C1047.69 113.396 1032.38 213.32 1030.64 314.031C1029.3 391.56 1036 468.974 1042.7 546.228C1059.49 739.837 1076.29 933.446 1093.08 1127.05M1125.93 22.0498C1104.76 217.572 1100.18 414.888 1112.27 611.181C1122.36 774.983 1144 937.828 1165.62 1100.51M1201.71 10.9621C1192.04 238.686 1186.55 466.59 1185.26 694.52C1191.84 747.83 1198.41 801.14 1204.99 854.45C1214.43 930.993 1223.87 1007.53 1233.32 1084.08M1300.5 1086.22C1291.17 920.846 1282.5 755.442 1274.49 590.008C1264.47 383.097 1255.49 175.375 1274.44 -30.9099M1353.03 -10.0415C1337.36 180.052 1323.53 371.113 1337.13 561.367C1340.41 607.18 1345.27 652.863 1350.13 698.536C1364.74 835.815 1379.35 973.095 1393.96 1110.38M1485.87 12.5496C1490.34 83.8035 1494.81 155.057 1499.28 226.311C1503.54 294.155 1507.8 361.998 1512.05 429.837C1516.88 506.744 1521.71 583.693 1522.35 660.751C1523.61 810.24 1486.91 946.027 1489.08 1095.51C1457.67 987.823 1436.95 877.111 1425.55 765.518C1405.32 567.512 1414.39 367.817 1423.48 168.99C1426.09 111.773 1428.71 54.5568 1431.33 -2.6597M1563.12 -4.05192C1567.26 98.3768 1571.4 200.806 1575.54 303.234C1577.38 348.852 1579.23 394.47 1581.08 440.093C1583.62 502.999 1586.17 565.909 1588.09 628.84C1592.78 781.729 1593.85 934.734 1591.28 1087.67M1655.03 -8.84959C1653.11 136.943 1651.2 282.737 1649.29 428.53C1648.64 478.269 1647.99 528.009 1647.33 577.748C1645.03 753.474 1642.72 929.2 1640.42 1104.93M1738.36 -2.79491C1717.45 286.112 1696.52 575.299 1695.92 864.957C1695.83 908.957 1696.21 952.958 1697.06 996.953C1697.65 1027.76 1698.47 1058.57 1699.3 1089.38M1785.2 -13.7224C1802.61 81.3897 1805.56 178.475 1808.47 275.119C1810.33 336.958 1812.19 398.797 1814.05 460.636C1815.83 520.081 1817.62 579.661 1813.09 638.961C1809.34 688.034 1801.29 736.667 1795.2 785.51C1779.57 910.926 1776.91 1037.95 1787.29 1163.91M199.552 104.797C-402.352 84.5297 -1005.03 87.4744 -1606.71 113.611M263.97 177.043C-182.442 164.207 -628.855 151.377 -1075.27 138.541C-1270.09 132.942 -1469.27 127.914 -1655.05 186.838M225.341 250.25C-94.5295 237.309 -414.405 224.368 -734.276 211.427C-1042.24 198.968 -1353.8 186.778 -1655.8 248.362M248.375 304.411C-378.256 301.542 -1004.89 298.667 -1631.52 295.797M229.178 377.528C-390.469 370.867 -1010.11 364.202 -1629.76 357.541M225.692 436.592C-390.495 439.948 -1006.68 443.303 -1622.86 446.658M241.317 522.935C-170.194 515.213 -581.705 507.496 -993.215 499.773C-1198.41 495.922 -1407.08 492.497 -1604.67 547.94M243.18 595.582C-385.229 590.253 -1013.64 584.929 -1642.04 579.601M215.162 650.88C-404.491 652.763 -1024.15 654.651 -1643.8 656.534M250.564 721.923C-384.543 748.18 -1020.81 746.207 -1655.74 716.004M222.175 798.876C-388.16 799.673 -998.495 800.469 -1608.83 801.265M202.898 871.297C-410.924 867.035 -1024.75 862.774 -1638.57 858.507M213.388 932.38C-409.175 928.163 -1031.73 923.951 -1654.3 919.735M251.882 1009.51C-233.44 1002.71 -718.756 995.906 -1204.08 989.105C-1347.13 987.102 -1490.17 985.094 -1633.22 983.091M108.212 7.72189C104.736 64.3875 101.259 121.053 98.4587 177.759C82.8039 494.805 88.3646 812.899 115.091 1129.2M29.1565 14.4326C29.1665 78.6703 29.1765 142.908 29.1815 207.146C29.1965 324.413 29.2167 441.686 29.2317 558.953C29.2567 736.442 29.3569 914.907 58.6628 1089.96M-48.111 4.45668C-39.77 274.633 -31.4491 545.587 -55.465 814.827C-64.8829 920.416 -79.2404 1027.12 -63.0144 1131.88M-117.458 17.6878C-121.732 209.74 -126.005 401.792 -130.278 593.844C-134.2 770.095 -138.123 946.352 -142.04 1122.6M-239.401 10.6115C-245.107 375.51 -226.907 740.778 -184.957 1103.31M-313.558 -6.81133C-310.762 230.683 -307.962 468.183 -305.167 705.677C-304.781 738.29 -304.4 770.902 -304.014 803.514C-302.917 896.482 -301.825 989.456 -300.728 1082.42M-391.231 -1.51787C-391.451 66.6311 -391.667 134.785 -391.887 202.934C-392.233 311.092 -392.579 419.25 -392.924 527.408C-393.105 583.337 -393.28 639.266 -394.477 695.186C-396.17 774.643 -399.913 854.04 -403.655 933.432C-406.65 996.998 -409.646 1060.56 -412.642 1124.13M-460.047 12.4294C-474.214 145.467 -469.26 279.712 -464.285 413.41C-455.624 646.192 -446.967 878.974 -438.306 1111.75M-554.122 17.823C-552.799 170.808 -551.482 323.792 -550.159 476.777C-549.383 566.53 -548.611 656.288 -547.835 746.042C-546.703 877.377 -545.566 1008.71 -544.433 1140.05M-633.418 12.2241C-644.595 235.781 -642.135 459.769 -639.675 683.592C-638.172 820.005 -636.674 956.423 -635.172 1092.84M-713.797 12.4044C-700.762 247.47 -713.566 483.122 -726.366 718.203C-733.574 850.559 -740.783 982.916 -747.992 1115.28M-789.967 13.8317C-774.693 113.396 -759.384 213.32 -757.64 314.031C-756.298 391.56 -763.001 468.974 -769.703 546.228C-786.495 739.837 -803.288 933.446 -820.08 1127.05M-852.927 22.0498C-831.757 217.572 -827.183 414.888 -839.271 611.181C-849.355 774.983 -870.997 937.828 -892.618 1100.51M-928.707 10.9621C-919.039 238.686 -913.553 466.59 -912.261 694.52C-918.838 747.83 -925.411 801.14 -931.988 854.45C-941.431 930.993 -950.874 1007.53 -960.317 1084.08M-1027.5 1086.22C-1018.17 920.846 -1009.5 755.442 -1001.49 590.008C-991.472 383.097 -982.49 175.375 -1001.44 -30.9099M-1080.03 -10.0415C-1064.36 180.052 -1050.53 371.113 -1064.13 561.367C-1067.41 607.18 -1072.27 652.863 -1077.13 698.536C-1091.74 835.815 -1106.35 973.095 -1120.96 1110.38M-1212.87 12.5496C-1217.34 83.8035 -1221.81 155.057 -1226.28 226.311C-1230.54 294.155 -1234.8 361.998 -1239.05 429.837C-1243.88 506.744 -1248.71 583.693 -1249.35 660.751C-1250.61 810.24 -1213.91 946.027 -1216.08 1095.51C-1184.67 987.823 -1163.95 877.111 -1152.55 765.518C-1132.32 567.512 -1141.39 367.817 -1150.48 168.99C-1153.1 111.773 -1155.71 54.5568 -1158.33 -2.6597M-1290.12 -4.05192C-1294.26 98.3768 -1298.4 200.806 -1302.54 303.234C-1304.38 348.852 -1306.23 394.47 -1308.08 440.093C-1310.62 502.999 -1313.17 565.909 -1315.09 628.84C-1319.78 781.729 -1320.85 934.734 -1318.28 1087.67M-1382.03 -8.84959C-1380.11 136.943 -1378.2 282.737 -1376.29 428.53C-1375.64 478.269 -1374.99 528.009 -1374.33 577.748C-1372.03 753.474 -1369.72 929.2 -1367.42 1104.93M-1465.36 -2.79491C-1444.45 286.112 -1423.52 575.299 -1422.92 864.957C-1422.83 908.957 -1423.21 952.958 -1424.06 996.953C-1424.65 1027.76 -1425.48 1058.57 -1426.3 1089.38M-1512.2 -13.7224C-1529.61 81.3897 -1532.56 178.475 -1535.47 275.119C-1537.33 336.958 -1539.19 398.797 -1541.05 460.636C-1542.83 520.081 -1544.62 579.661 -1540.09 638.961C-1536.34 688.034 -1528.29 736.667 -1522.2 785.51C-1506.58 910.926 -1503.91 1037.95 -1514.29 1163.91" stroke="url(#paint0_linear_10030_13442)" stroke-width="4" stroke-miterlimit="10"></path></g><defs><linearGradient id="paint0_linear_10030_13442" x1="-1655.8" y1="566.503" x2="1928.8" y2="566.503" gradientUnits="userSpaceOnUse"><stop stop-color="#EF2807"></stop><stop offset="1" stop-color="#9040EF"></stop></linearGradient></defs></svg>