<svg xmlns="http://www.w3.org/2000/svg" width="1920" height="900" viewBox="0 0 1920 900" fill="none"><path d="M0.0461013 947.651L0.0461425 -167.762C0.0461426 -168.634 0.644165 -169.288 1.33423 -169.288L1918.68 -169.287C1919.41 -169.287 1919.96 -168.579 1919.96 -167.762L1919.96 947.651C1919.96 948.522 1919.37 949.176 1918.68 949.176L1.38021 949.176C0.644246 949.176 0.0922439 948.468 0.0922439 947.651L0.0461013 947.651ZM2.66821 -166.237L2.66817 946.125L1917.34 946.125L1917.34 -166.237L2.66821 -166.237Z" fill="#E7E7E7"></path><path d="M709.555 534.846L709.555 244.935C709.555 244.063 710.153 243.409 710.843 243.409L1209.17 243.409C1209.9 243.409 1210.45 244.117 1210.45 244.935L1210.45 534.846C1210.45 535.717 1209.86 536.371 1209.17 536.371L710.843 536.371C710.107 536.371 709.555 535.663 709.555 534.846ZM712.177 246.514L712.177 533.321L1207.88 533.321L1207.88 246.514L712.177 246.514Z" fill="#454545"></path><path d="M0.0461425 -167.817C0.0461425 -167.817 0.0461425 -168.035 0.0461425 -168.144C0.184082 -168.852 0.690063 -169.342 1.33411 -169.342L1918.68 -169.342C1919.27 -169.342 1919.83 -168.852 1919.96 -168.143C1920.1 -167.435 1919.83 -166.727 1919.27 -166.4L1209.76 246.35C1209.76 246.35 1209.4 246.514 1209.17 246.514L710.844 246.514C710.844 246.514 710.43 246.459 710.246 246.35L0.736084 -166.4C0.276123 -166.673 0.000121992 -167.217 0.000122014 -167.817L0.0461425 -167.817ZM1913.02 -166.237L6.99219 -166.237L711.166 243.409L1208.84 243.409L1913.02 -166.237Z" fill="#E7E7E7"></path><path d="M1591.66 23.9873L1591.66 20.8822L328.395 20.8821L328.395 23.9872L1591.66 23.9873Z" fill="#E7E7E7"></path><path d="M1499.61 77.5346L1499.61 74.4296L420.444 74.4295L420.444 77.5346L1499.61 77.5346Z" fill="#E7E7E7"></path><path d="M1430.98 117.464L1430.98 114.359L489.076 114.359L489.076 117.464L1430.98 117.464Z" fill="#E7E7E7"></path><path d="M1377.85 148.406L1377.85 145.301L542.206 145.301L542.206 148.406L1377.85 148.406Z" fill="#E7E7E7"></path><path d="M1335.48 173.028L1335.48 169.923L584.574 169.923L584.574 173.028L1335.48 173.028Z" fill="#E7E7E7"></path><path d="M1300.89 193.129L1300.89 190.024L619.119 190.024L619.119 193.129L1300.89 193.129Z" fill="#E7E7E7"></path><path d="M1272.19 209.853L1272.19 206.748L647.868 206.748L647.868 209.853L1272.19 209.853Z" fill="#E7E7E7"></path><path d="M1247.9 223.962L1247.9 220.857L672.113 220.857L672.113 223.962L1247.9 223.962Z" fill="#E7E7E7"></path><path d="M1227.15 236.054L1227.15 232.949L692.906 232.949L692.906 236.054L1227.15 236.054Z" fill="#E7E7E7"></path><path d="M756.802 243.671L176.27 -169.077L174.92 -166.415L755.452 246.333L756.802 243.671Z" fill="#E7E7E7"></path><path d="M802.414 243.64L350.914 -169.154L349.312 -166.696L800.812 246.098L802.414 243.64Z" fill="#E7E7E7"></path><path d="M847.688 243.816L524.926 -168.654L523.003 -166.543L845.765 245.926L847.688 243.816Z" fill="#E7E7E7"></path><path d="M893.093 244.36L699.867 -168.612L697.574 -167.107L890.799 245.865L893.093 244.36Z" fill="#E7E7E7"></path><path d="M938.907 244.697L874.309 -168.052L871.73 -167.486L936.329 245.262L938.907 244.697Z" fill="#E7E7E7"></path><path d="M1048.51 -167.745L1045.93 -168.309L981.453 244.466L984.031 245.031L1048.51 -167.745Z" fill="#E7E7E7"></path><path d="M1222.48 -166.836L1220.19 -168.343L1026.66 244.429L1028.95 245.936L1222.48 -166.836Z" fill="#E7E7E7"></path><path d="M1396.54 -166.606L1394.61 -168.715L1072.09 244.022L1074.02 246.131L1396.54 -166.606Z" fill="#E7E7E7"></path><path d="M1570.93 -166.679L1569.33 -169.137L1117.83 243.657L1119.43 246.115L1570.93 -166.679Z" fill="#E7E7E7"></path><path d="M1744.91 -166.423L1743.56 -169.085L1163.03 243.663L1164.38 246.326L1744.91 -166.423Z" fill="#E7E7E7"></path><path d="M0.0474441 947.65L0.0474853 -167.763C0.0474853 -168.307 0.277527 -168.798 0.645569 -169.07C1.01355 -169.342 1.51953 -169.397 1.93353 -169.124L711.444 243.626C711.904 243.898 712.18 244.443 712.18 245.042L712.18 534.954C712.18 535.553 711.904 536.098 711.444 536.37L1.93349 949.121C1.51949 949.339 1.05953 949.339 0.645528 949.066C0.277486 948.794 0.0474441 948.304 0.0474441 947.759L0.0474441 947.65ZM2.66956 -165.311L2.66951 945.144L709.558 533.919L709.558 245.969L2.66956 -165.257L2.66956 -165.311Z" fill="#E7E7E7"></path><path d="M199.826 832.982L199.826 -53.0942L197.204 -53.0942L197.204 832.982L199.826 832.982Z" fill="#E7E7E7"></path><path d="M329.684 757.372L329.684 22.4611L327.062 22.4611L327.062 757.372L329.684 757.372Z" fill="#E7E7E7"></path><path d="M421.734 703.824L421.734 76.0091L419.112 76.0091L419.112 703.824L421.734 703.824Z" fill="#E7E7E7"></path><path d="M490.367 663.949L490.367 115.939L487.745 115.939L487.745 663.949L490.367 663.949Z" fill="#E7E7E7"></path><path d="M543.496 632.953L543.496 146.825L540.874 146.825L540.874 632.953L543.496 632.953Z" fill="#E7E7E7"></path><path d="M585.861 608.386L585.861 171.503L583.239 171.503L583.239 608.386L585.861 608.386Z" fill="#E7E7E7"></path><path d="M620.408 588.229L620.408 191.603L617.786 191.603L617.786 588.229L620.408 588.229Z" fill="#E7E7E7"></path><path d="M649.158 571.56L649.158 208.327L646.536 208.327L646.536 571.56L649.158 571.56Z" fill="#E7E7E7"></path><path d="M673.447 557.397L673.447 222.436L670.825 222.436L670.825 557.397L673.447 557.397Z" fill="#E7E7E7"></path><path d="M694.191 545.358L694.191 234.529L691.569 234.529L691.569 545.358L694.191 545.358Z" fill="#E7E7E7"></path><path d="M711.517 509.921L710.539 507.04L1.05558 844.79L2.03358 847.671L711.517 509.921Z" fill="#E7E7E7"></path><path d="M711.245 483.614L710.463 480.65L0.957698 743.31L1.74005 746.273L711.245 483.614Z" fill="#E7E7E7"></path><path d="M711.269 457.357L710.697 454.327L1.18756 641.982L1.7591 645.012L711.269 457.357Z" fill="#E7E7E7"></path><path d="M1.19714 540.456L710.707 427.912L711.029 430.962L1.51916 543.561L1.19714 540.456Z" fill="#E7E7E7"></path><path d="M711.084 404.677L710.967 401.575L1.47535 439.14L1.59246 442.242L711.084 404.677Z" fill="#E7E7E7"></path><path d="M710.763 375.518L1.27148 337.953L1.15437 341.055L710.646 378.62L710.763 375.518Z" fill="#E7E7E7"></path><path d="M1.19714 239.323L1.51917 236.272L711.029 348.87L710.707 351.921L1.19714 239.323Z" fill="#E7E7E7"></path><path d="M711.052 322.529L1.45898 135.314L0.888787 138.345L710.482 325.56L711.052 322.529Z" fill="#E7E7E7"></path><path d="M711.128 296.491L1.73828 33.3912L0.954616 36.3543L710.344 299.454L711.128 296.491Z" fill="#E7E7E7"></path><path d="M711.004 270.493L1.76953 -67.9897L0.789414 -65.1097L710.024 273.373L711.004 270.493Z" fill="#E7E7E7"></path><path d="M0.0472259 947.65C0.0472259 947.051 0.323227 946.506 0.783188 946.234L710.293 533.483C710.293 533.483 710.661 533.32 710.891 533.32L1209.21 533.32C1209.21 533.32 1209.63 533.374 1209.81 533.483L1919.23 946.234C1919.78 946.561 1920.06 947.269 1919.92 947.977C1919.78 948.685 1919.23 949.175 1918.63 949.175L1.33519 949.175C0.737167 949.175 0.185165 948.685 0.0472259 947.977C0.0472259 947.868 0.0472259 947.759 0.0472259 947.65ZM711.167 536.425L6.99327 946.07L1913.02 946.07L1208.85 536.425L711.167 536.425Z" fill="#E7E7E7"></path><path d="M1721.52 834.507L1721.52 831.402L198.492 831.402L198.492 834.507L1721.52 834.507Z" fill="#E7E7E7"></path><path d="M1591.66 758.951L1591.66 755.846L328.399 755.846L328.399 758.951L1591.66 758.951Z" fill="#E7E7E7"></path><path d="M1499.61 705.403L1499.61 702.298L420.444 702.298L420.444 705.403L1499.61 705.403Z" fill="#E7E7E7"></path><path d="M1430.98 665.474L1430.98 662.369L489.076 662.369L489.076 665.474L1430.98 665.474Z" fill="#E7E7E7"></path><path d="M1377.85 634.532L1377.85 631.427L542.206 631.427L542.206 634.532L1377.85 634.532Z" fill="#E7E7E7"></path><path d="M1335.48 609.911L1335.48 606.806L584.574 606.806L584.574 609.911L1335.48 609.911Z" fill="#E7E7E7"></path><path d="M1300.89 589.809L1300.89 586.704L619.119 586.704L619.119 589.809L1300.89 589.809Z" fill="#E7E7E7"></path><path d="M1272.19 573.086L1272.19 569.981L647.872 569.981L647.872 573.086L1272.19 573.086Z" fill="#E7E7E7"></path><path d="M1247.9 558.977L1247.9 555.872L672.113 555.872L672.113 558.977L1247.9 558.977Z" fill="#E7E7E7"></path><path d="M1227.15 546.884L1227.15 543.779L692.906 543.779L692.906 546.884L1227.15 546.884Z" fill="#E7E7E7"></path><path d="M1745.09 946.19L1164.5 533.562L1163.15 536.224L1743.74 948.852L1745.09 946.19Z" fill="#E7E7E7"></path><path d="M1571.05 946.239L1119.55 533.445L1117.94 535.903L1569.44 948.697L1571.05 946.239Z" fill="#E7E7E7"></path><path d="M1396.69 946.539L1073.93 534.069L1072 536.18L1394.77 948.65L1396.69 946.539Z" fill="#E7E7E7"></path><path d="M1222.51 946.978L1029.29 534.006L1027 535.511L1220.22 948.482L1222.51 946.978Z" fill="#E7E7E7"></path><path d="M1048.61 947.359L984.01 534.611L981.432 535.177L1046.03 947.925L1048.61 947.359Z" fill="#E7E7E7"></path><path d="M938.779 534.84L936.201 534.275L871.724 947.05L874.302 947.615L938.779 534.84Z" fill="#E7E7E7"></path><path d="M893.06 535.787L890.768 534.28L697.238 947.052L699.53 948.559L893.06 535.787Z" fill="#E7E7E7"></path><path d="M847.491 536.04L845.566 533.932L523.047 946.668L524.971 948.777L847.491 536.04Z" fill="#E7E7E7"></path><path d="M802.382 536.091L800.779 533.633L349.279 946.427L350.881 948.885L802.382 536.091Z" fill="#E7E7E7"></path><path d="M756.672 536.289L755.322 533.627L174.79 946.375L176.14 949.037L756.672 536.289Z" fill="#E7E7E7"></path><path d="M1207.88 534.845L1207.88 244.934C1207.88 244.334 1208.15 243.79 1208.61 243.517L1918.08 -169.179C1918.49 -169.397 1918.95 -169.397 1919.37 -169.124C1919.73 -168.852 1919.96 -168.362 1919.96 -167.817L1919.96 947.596C1919.96 948.14 1919.73 948.631 1919.37 948.903C1919 949.175 1918.49 949.23 1918.08 948.958L1208.57 536.207C1208.11 535.934 1207.83 535.39 1207.83 534.79L1207.88 534.845ZM1210.45 245.914L1210.45 533.864L1917.34 945.144L1917.34 -165.311L1210.45 245.914Z" fill="#E7E7E7"></path><path d="M1722.86 832.982L1722.86 -53.0943L1720.23 -53.0943L1720.23 832.982L1722.86 832.982Z" fill="#E7E7E7"></path><path d="M1592.95 757.372L1592.95 22.4615L1590.33 22.4615L1590.33 757.372L1592.95 757.372Z" fill="#E7E7E7"></path><path d="M1500.9 703.823L1500.9 76.0089L1498.28 76.0089L1498.28 703.823L1500.9 703.823Z" fill="#E7E7E7"></path><path d="M1432.27 663.949L1432.27 115.939L1429.65 115.939L1429.65 663.949L1432.27 663.949Z" fill="#E7E7E7"></path><path d="M1379.14 632.953L1379.14 146.826L1376.51 146.826L1376.51 632.953L1379.14 632.953Z" fill="#E7E7E7"></path><path d="M1336.77 608.385L1336.77 171.502L1334.15 171.502L1334.15 608.385L1336.77 608.385Z" fill="#E7E7E7"></path><path d="M1302.22 588.23L1302.22 191.604L1299.6 191.604L1299.6 588.23L1302.22 588.23Z" fill="#E7E7E7"></path><path d="M1273.47 571.561L1273.47 208.327L1270.85 208.327L1270.85 571.561L1273.47 571.561Z" fill="#E7E7E7"></path><path d="M1249.23 557.397L1249.23 222.436L1246.61 222.436L1246.61 557.397L1249.23 557.397Z" fill="#E7E7E7"></path><path d="M1228.44 545.358L1228.44 234.529L1225.82 234.529L1225.82 545.358L1228.44 545.358Z" fill="#E7E7E7"></path><path d="M1919.28 -65.0488L1918.31 -67.9298L1208.82 269.819L1209.8 272.7L1919.28 -65.0488Z" fill="#E7E7E7"></path><path d="M1919.03 36.5311L1918.25 33.5675L1208.74 296.227L1209.53 299.191L1919.03 36.5311Z" fill="#E7E7E7"></path><path d="M1919.07 137.849L1918.5 134.819L1208.99 322.474L1209.56 325.504L1919.07 137.849Z" fill="#E7E7E7"></path><path d="M1208.98 348.87L1918.49 236.272L1918.86 239.322L1209.35 351.92L1208.98 348.87Z" fill="#E7E7E7"></path><path d="M1918.94 340.799L1918.82 337.697L1209.33 375.262L1209.45 378.364L1918.94 340.799Z" fill="#E7E7E7"></path><path d="M1918.67 439.449L1209.17 401.884L1209.06 404.986L1918.55 442.551L1918.67 439.449Z" fill="#E7E7E7"></path><path d="M1208.98 430.963L1209.35 427.912L1918.86 540.456L1918.49 543.561L1208.98 430.963Z" fill="#E7E7E7"></path><path d="M1918.96 641.912L1209.4 454.55L1208.83 457.581L1918.39 644.943L1918.96 641.912Z" fill="#E7E7E7"></path><path d="M1919.05 743.482L1209.67 480.382L1208.88 483.345L1918.27 746.445L1919.05 743.482Z" fill="#E7E7E7"></path><path d="M1918.95 845.42L1209.67 507.085L1208.69 509.965L1917.97 848.301L1918.95 845.42Z" fill="#E7E7E7"></path></svg>